PathFileType	4	(X/Y/Z)	C:/Users/beibeiliu/ov580/test_trc/User3\sequence.13_training_dense_right.trc
DataRate	CameraRate	NumFrames	NumMarkers	Units	OrigDataRate	OrigDataStartFrame	OrigNumFrames
120	120	8	19	mm	120	57	85
Frame#	Time	ThumbCMC			ThumbMCP			ThumbIP			ThumbTip			IndexMCP			IndexPIP			IndexTip			MiddleMCP			MiddlePIP			MiddleTip			RingMCP			RingPIP			RingTip			PinkyMCP			PinkyPIP			PinkyTip			BackHand1			BackHand2			BackHand3	
		X0	Y0	Z0	X1	Y1	Z1	X2	Y2	Z2	X3	Y3	Z3	X4	Y4	Z4	X5	Y5	Z5	X6	Y6	Z6	X7	Y7	Z7	X8	Y8	Z8	X9	Y9	Z9	X10	Y10	Z10	X11	Y11	Z11	X12	Y12	Z12	X13	Y13	Z13	X14	Y14	Z14	X15	Y15	Z15	X16	Y16	Z16	X17	Y17	Z17	X18	Y18	Z18	
56	0.466667	126.976	54.0579	22.664	101.903	30.2981	17.0187	88.2638	7.21416	6.90252	89.5814	-17.7518	0.173399	117.341	10.5305	-39.3352	98.7688	-11.3889	-37.3964	88.2487	-29.9628	-12.2838	132.335	-3.23776	-37.8972	116.269	-27.7598	-24.581	111.973	-23.5008	14.5747	148.472	-10.3014	-26.7645	134.818	-32.8578	-6.98159	133.607	-17.913	21.9295	163.414	-15.8692	-14.7031	149.111	-30.2895	5.91063	146.598	-8.18206	27.0358	180.426	35.6256	-10.5462	190.105	53.3533	12.2535	155.881	60.4814	-2.47194	
57	0.475	136.077	67.9209	25.1003	103.229	52.2919	18.0324	80.2832	32.6912	10.1525	80.0954	10.7392	7.25907	109.283	28.2882	-34.0392	84.9058	7.62994	-29.4806	72.1216	-3.67011	-2.48035	120.588	5.17617	-31.1182	94.4598	-10.3143	-13.8156	96.443	-4.69258	22.2626	135.264	-6.65649	-19.8038	113.353	-19.6374	-1.11965	113.158	-2.10525	28.7602	146.242	-17.772	-7.65617	126.826	-19.1376	10.0687	129.838	3.09119	34.865	177.143	33.0396	-10.2061	193.868	43.182	10.0065	164.817	61.6256	-2.30318	
58	0.483333	149.01	74.011	21.3003	115.666	72.8968	19.6028	87.929	63.3304	12.3924	77.7785	36.5498	8.12538	110.641	40.9697	-31.5799	77.711	34.9837	-26.141	63.28	30.855	-1.05885	113.87	19.1795	-28.318	83.3834	10.6254	-9.22528	84.3907	23.1435	28.1954	120.453	6.06279	-17.4812	98.1387	-1.83412	5.19505	100.884	13.3779	31.7297	131.073	-10.4994	-2.99239	110.433	-7.02198	15.765	115.915	11.7461	39.3433	176.328	22.6441	-5.99079	198.676	32.3043	14.5678	175.438	58.5294	-1.85853	
59	0.491667	163.475	73.7036	21.3099	130.468	86.6274	16.6074	102.093	77.0484	8.98316	83.6241	63.0284	8.8608	114.835	53.7252	-31.3648	84.1517	53.1843	-25.831	66.5565	55.2762	0.0992919	107.429	30.0238	-25.658	79.0224	34.5357	-8.98358	80.6059	44.7766	25.9125	112.198	12.3675	-13.1736	87.6071	16.4502	6.63677	95.4503	29.9599	34.7689	120.265	-2.97803	2.1017	98.5491	5.63307	18.7585	106.51	24.963	37.944	167.961	15.7325	-5.11551	195.566	18.6792	17.3381	183.136	48.1728	-0.927292	
60	0.5	176.229	73.8361	23.8283	147.164	87.6182	16.0833	118.504	95.5237	8.04961	92.4449	87.3857	5.96945	119.431	59.8724	-31.8312	90.2622	74.4785	-25.5498	75.7912	84.8069	-0.688295	112.538	42.933	-26.0251	84.1215	58.275	-13.6153	86.3628	65.2713	28.6333	104.745	24.6613	-12.2511	85.0095	36.2735	4.70606	95.6761	48.8908	34.1272	110.237	7.26064	5.16653	91.766	27.5488	16.1105	100.188	38.2938	39.9907	162.851	9.8847	-0.070269	186.953	7.5349	21.1955	182.887	39.4674	-0.510348	
61	0.508333	181.955	65.7943	20.4174	162.642	91.0376	13.3489	135.698	103.54	0.740405	111.77	97.4352	-2.31024	135.049	62.8836	-35.1657	104.222	80.5248	-33.5987	94.3806	98.1576	-13.446	117.538	44.9831	-28.5313	93.1174	71.22	-20.8741	97.4054	82.1845	15.7561	110.431	34.2461	-18.1859	88.67	50.547	-7.33459	98.7659	61.5845	24.0245	106.411	19.106	-2.2025	89.2568	35.1157	8.02026	104.474	54.1996	31.9117	156.217	7.42231	2.23746	177.725	0.161805	24.6537	186.249	32.8003	2.14007	
62	0.516667	192.659	54.9322	16.9768	176.058	79.1397	3.04667	154.158	95.2828	-16.6918	131.571	97.0721	-23.0574	149.28	50.8205	-43.6266	126.756	71.9155	-50.1946	115.01	97.8881	-32.5507	127.457	41.3248	-43.3564	110.589	68.1379	-38.9358	111.947	81.7147	-0.053962	119.096	26.815	-27.5655	100.832	54.7299	-23.0906	112.941	65.0795	8.67102	110.672	14.17	-9.89468	97.023	40.1001	-8.37617	112.902	55.5703	12.9062	160.034	-0.236278	2.74748	174.328	-9.96486	28.9679	188.06	18.9768	2.76168	
63	0.525	203.365	43.8991	12.041	193.025	64.7532	-9.33006	180.75	79.6927	-33.0667	156.492	82.6001	-48.0289	171.537	32.4471	-53.8203	157.521	59.7819	-70.346	140.807	82.161	-55.4879	150.906	24.3317	-53.0744	135.9	51.1534	-59.8233	130.975	74.7233	-23.2498	136.952	13.984	-39.5916	119.994	39.9319	-43.7159	126.588	57.5449	-16.98	124.325	5.79616	-22.5908	114.177	28.4644	-31.333	122.636	50.2259	-9.87884	166.739	-11.3675	-1.24858	176.271	-14.2211	32.0252	199.149	7.39353	4.39086	
